<svg width="180" height="28" viewBox="0 0 180 28" fill="none" xmlns="http://www.w3.org/2000/svg">
<g clip-path="url(#clip0_83_2331)">
<path fill-rule="evenodd" clip-rule="evenodd" d="M40.4406 4.3542V0H22.9824V8.2962C22.9824 11.0988 25.254 13.3704 28.0566 13.3704C25.254 13.3704 22.9824 15.642 22.9824 18.4446V26.7408H27.3366V20.1438C27.3366 17.6058 29.394 15.5484 31.932 15.5484H38.7522V11.1942H31.932C29.394 11.1942 27.3366 9.1368 27.3366 6.5988V4.356H40.4406V4.3542ZM48.8538 0H44.4996V26.7426H48.8538V0ZM63.6588 27.1998C69.7716 27.1998 74.547 22.5396 74.547 16.236C74.547 9.8946 69.6564 5.2722 63.6588 5.2722C57.6612 5.2722 52.7706 9.9702 52.7706 16.236C52.7706 22.5018 57.546 27.1998 63.6588 27.1998ZM63.6588 23.0742C59.9922 23.0742 57.1266 20.286 57.1266 16.236C57.1266 12.186 60.03 9.3978 63.6588 9.3978C67.2876 9.3978 70.191 12.186 70.191 16.236C70.191 20.286 67.3254 23.0742 63.6588 23.0742ZM106.94 5.7312L106.939 5.733H102.625L100.791 12.3426L98.307 22.122L94.0284 5.733H88.8336L84.5172 22.1976L82.0728 12.3408L80.2008 5.7312H75.9222L81.9198 26.7426H86.9616L91.3428 10.0854H91.5192L95.9004 26.7426H100.942L106.939 5.733H106.942L106.94 5.7312ZM122.47 27.1998C128.086 27.1998 132.174 22.6548 132.174 16.236C132.174 9.819 128.009 5.2722 122.508 5.2722C119.185 5.2722 116.663 6.9156 115.135 9.3222V0H110.819V26.7426H115.135V23.2272C116.663 25.596 119.185 27.1998 122.47 27.1998ZM121.554 9.3978C125.222 9.3978 127.82 12.2238 127.82 16.236C127.82 20.286 125.222 23.0742 121.554 23.0742C117.886 23.0742 115.097 20.2464 115.097 16.236C115.097 12.2256 117.886 9.3978 121.554 9.3978ZM136.233 5.7312H140.549V26.7426H136.233V5.7312ZM180 26.7426V0H175.684V9.3222C174.118 6.9156 171.596 5.2722 168.273 5.2722C162.77 5.2722 158.607 9.819 158.607 16.236C158.607 22.653 162.695 27.1998 168.311 27.1998C171.596 27.1998 174.118 25.596 175.684 23.2272V26.7426H180ZM169.227 9.3978C172.895 9.3978 175.684 12.2238 175.684 16.236C175.684 20.286 172.858 23.0742 169.227 23.0742C165.596 23.0742 162.961 20.2464 162.961 16.236C162.961 12.2256 165.559 9.3978 169.227 9.3978ZM157.171 5.373C156.865 5.2956 156.445 5.2578 155.911 5.2578V5.2596C152.577 5.2596 150.248 6.7986 148.925 9.8784V5.7168H144.61V26.7156H148.925V17.0946C148.925 14.6268 149.56 12.7746 150.833 11.5398C152.105 10.305 153.785 9.6876 155.873 9.6876C156.229 9.6876 156.661 9.7128 157.171 9.7632V5.373Z" fill="#100F17"/>
<path d="M11.4912 3.8196V0H0V3.8196C0 9.0936 4.275 13.3704 9.549 13.3704C4.275 13.3704 0 17.6472 0 22.9212V26.7408H11.4912V22.9212C11.4912 17.6472 15.7662 13.3704 21.0402 13.3704C15.7662 13.3704 11.4912 9.0936 11.4912 3.8196Z" fill="#010BEC"/>
</g>
<defs>
<clipPath id="clip0_83_2331">
<rect width="180" height="27.1998" fill="white"/>
</clipPath>
</defs>
</svg>
